<?xml version="1.0" standalone="no"?>
<!DOCTYPE svg PUBLIC "-//W3C//DTD SVG 20010904//EN"
 "http://www.w3.org/TR/2001/REC-SVG-20010904/DTD/svg10.dtd">
<svg version="1.0" xmlns="http://www.w3.org/2000/svg"
 width="260.000000pt" height="260.000000pt" viewBox="0 0 260.000000 260.000000"
 preserveAspectRatio="xMidYMid meet">
<metadata>
Created by potrace 1.11, written by Peter Selinger 2001-2013
</metadata>
<g transform="translate(0.000000,260.000000) scale(0.100000,-0.100000)"
fill="#000000" stroke="none">
<path d="M2000 2421 c-91 -94 -279 -285 -418 -425 l-252 -256 2 -207 3 -208
205 -1 205 -2 133 137 c74 75 262 265 418 424 217 218 283 291 276 303 -10 18
-393 404 -401 404 -3 0 -80 -76 -171 -169z"/>
<path d="M402 2562 c-37 -24 -401 -396 -395 -405 6 -9 329 -330 691 -685 l153
-150 207 2 207 1 3 205 2 204 -197 194 c-109 106 -300 294 -424 418 -125 123
-228 224 -230 224 -2 0 -10 -4 -17 -8z"/>
<path d="M736 1156 c-65 -67 -253 -257 -418 -424 -164 -167 -298 -307 -296
-312 4 -11 399 -410 406 -410 2 0 83 80 179 177 96 98 284 289 419 425 l244
247 -2 208 -3 208 -205 1 -205 1 -119 -121z"/>
<path d="M1335 1272 c-3 -3 -5 -96 -5 -206 l0 -201 194 -190 c107 -104 298
-293 425 -418 127 -126 236 -227 241 -225 9 3 410 398 410 404 0 4 -481 481
-701 695 l-151 146 -203 0 c-112 1 -207 -2 -210 -5z"/>
</g>
</svg>
